<?xml version="1.0" encoding="utf-8"?>
<!-- Generator: Adobe Illustrator 19.1.0, SVG Export Plug-In . SVG Version: 6.00 Build 0)  -->
<svg version="1.1" id="Calque_1" xmlns="http://www.w3.org/2000/svg" xmlns:xlink="http://www.w3.org/1999/xlink" x="0px" y="0px"
	 viewBox="-72.2 91.5 72.7 111.5" style="enable-background:new -72.2 91.5 72.7 111.5;" xml:space="preserve">
<style type="text/css">
	.st0{fill:none;stroke:#3DE073;stroke-width:2;stroke-miterlimit:10;}
	.st1{fill:none;stroke:#3DE073;stroke-miterlimit:10;}
	.st2{fill:none;stroke:#1D1363;stroke-width:2;stroke-miterlimit:10;}
	.st3{fill:#FFFFFF;stroke:#3DE073;stroke-width:2;stroke-miterlimit:10;}
	.st4{fill:#3DE073;}
</style>
<path class="st0" d="M-3.2,154.8c0,0,12.8-34.3-20.8-47.8c-15-6-32.3,2.9-37.2,20c-3,10.2,3.8,25.5,6.5,27.8"/>
<path class="st1" d="M-55,116.5c-3,7.5,1.5,36,6.5,38.5"/>
<path class="st1" d="M-49,110c-2.5,8,10.5,44.5,17,45.5"/>
<path class="st1" d="M-48,109c6.5,0,30.5,37,32.5,46"/>
<path class="st1" d="M-6,155c2-16-1-46-35.5-49"/>
<path class="st2" d="M-53.8,170.2L-48,203c0.8,0,40,0,40,0l5.8-33"/>
<polygon class="st2" points="-56,155.8 -55.5,169.5 -0.5,169.8 0.5,155.5 "/>
<path class="st3" d="M-28.8,137.5l15.5-8c0,0,6.8,12,1,17.8S-25.2,142.5-28.8,137.5z"/>
<circle class="st4" cx="-34.2" cy="138.2" r="2.8"/>
<circle class="st4" cx="-9.2" cy="126.2" r="2.8"/>
<line class="st0" x1="-21.2" y1="107" x2="-17" y2="98.8"/>
<line class="st0" x1="-58.2" y1="135.5" x2="-72.8" y2="136.8"/>
<line class="st0" x1="-57.8" y1="147" x2="-64.2" y2="152.5"/>
<path class="st2" d="M-50.2,106.8c0,0,3-12.2,12.2-12c4.5,0.8,4.2,4.2,2.8,5.8S-46,103.8-50.2,106.8z"/>
<path class="st2" d="M-53.8,108.8c-5.2-3-12-4.8-10.2-11s8.5-7.8,11.2-4.8S-53.2,103.5-53.8,108.8z"/>
<path class="st2" d="M-55.2,111.2c-4.5-2.8-17.7-0.7-17,8.5c0.2,3.2,2.8,5,6.2,4S-61.8,115.5-55.2,111.2z"/>
</svg>
