<?xml version="1.0" encoding="utf-8"?>
<!-- Generator: Adobe Illustrator 19.1.0, SVG Export Plug-In . SVG Version: 6.00 Build 0)  -->
<svg version="1.1" id="Calque_1" xmlns="http://www.w3.org/2000/svg" xmlns:xlink="http://www.w3.org/1999/xlink" x="0px" y="0px"
	 viewBox="-445 223.8 76.7 114.7" style="enable-background:new -445 223.8 76.7 114.7;" xml:space="preserve">
<style type="text/css">
	.st0{fill:none;stroke:#3DE073;stroke-width:2;stroke-miterlimit:10;}
	.st1{fill:none;stroke:#3DE073;stroke-miterlimit:10;}
	.st2{fill:none;stroke:#1D1363;stroke-width:2;stroke-miterlimit:10;}
	.st3{fill:#FFFFFF;stroke:#3DE073;stroke-width:2;stroke-miterlimit:10;}
	.st4{fill:#3DE073;}
</style>
<path class="st0" d="M-373.7,288.8c0,0,12.8-34.3-20.8-47.8c-15-6-32.3,2.9-37.2,20c-3,10.2,3.8,25.5,6.5,27.8"/>
<path class="st1" d="M-425.5,250.5c-3,7.5,1.5,36,6.5,38.5"/>
<path class="st1" d="M-419.5,244c-2.5,8,10.5,44.5,17,45.5"/>
<path class="st1" d="M-418.5,243c6.5,0,30.5,37,32.5,46"/>
<path class="st1" d="M-376.5,289c2-16-1-46-35.5-49"/>
<path class="st2" d="M-424.3,304.2l5.8,32.8c0.8,0,40,0,40,0l5.8-33"/>
<polygon class="st2" points="-426.5,289.8 -426,303.5 -371,303.8 -370,289.5 "/>
<path class="st3" d="M-399.3,271.5l15.5-8c0,0,6.8,12,1,17.8C-388.6,287.1-395.7,276.5-399.3,271.5z"/>
<circle class="st4" cx="-404.7" cy="272.2" r="2.8"/>
<circle class="st4" cx="-379.7" cy="260.2" r="2.8"/>
<line class="st0" x1="-391.7" y1="241" x2="-387.5" y2="232.8"/>
<line class="st0" x1="-428.7" y1="269.5" x2="-443.3" y2="270.8"/>
<line class="st0" x1="-428.3" y1="281" x2="-434.7" y2="286.5"/>
<path class="st2" d="M-420.7,240.8c0,0,3-12.2,12.2-12c4.5,0.8,4.2,4.2,2.8,5.8C-407.1,236.2-416.5,237.8-420.7,240.8z"/>
<path class="st2" d="M-424.3,242.8c-5.2-3-12-4.8-10.2-11s8.5-7.8,11.2-4.8C-420.6,230-423.7,237.5-424.3,242.8z"/>
<path class="st2" d="M-425.7,245.2c-4.5-2.8-17.7-0.7-17,8.5c0.2,3.2,2.8,5,6.2,4S-432.3,249.5-425.7,245.2z"/>
</svg>
