<?xml version="1.0" encoding="utf-8"?>
<!-- Generator: Adobe Illustrator 19.1.0, SVG Export Plug-In . SVG Version: 6.00 Build 0)  -->
<svg version="1.1" id="Calque_1" xmlns="http://www.w3.org/2000/svg" xmlns:xlink="http://www.w3.org/1999/xlink" x="0px" y="0px"
	 viewBox="0 0 88.6 205.4" style="enable-background:new 0 0 88.6 205.4;" xml:space="preserve">
<style type="text/css">
	.st0{fill:#47E17A;}
	.st1{fill:#FFFFFF;}
</style>
<path class="st0" d="M72.8,134.4c-0.7,20.7-0.5,41.3,0.1,61.9c0.1,2.1,1,4.7-2.9,4.9c-4.1,0.2-3.1-2.7-3.2-4.7
	c-1.3-30.3-0.3-60.6-0.3-90.9c0-19.5,0.2-39-4.5-58.1c-6.2-25.1-19.8-36.2-45.5-37.2c-4.1-0.2-8.3,0-12.5,0.3
	c-2.4,0.2-3.1-0.7-3.5-2.9C0.1,5,1.3,4.6,3.5,4.3c10.9-1.1,21.6-0.6,32.1,2.8c18.6,6,27.8,20.2,32.3,38.1c4.9,19.6,4.8,39.6,5,59.6
	C72.9,114.7,72.8,124.5,72.8,134.4z"/>
<polygon class="st1" points="85.2,194.3 76.6,198.1 76.6,191.6 "/>
<polygon class="st1" points="85.2,182.3 76.6,186.1 76.6,179.6 "/>
<polygon class="st1" points="85.2,169.3 76.6,173.1 76.6,166.6 "/>
</svg>
