<?xml version="1.0" encoding="utf-8"?>
<!-- Generator: Adobe Illustrator 19.1.0, SVG Export Plug-In . SVG Version: 6.00 Build 0)  -->
<svg version="1.1" id="Calque_1" xmlns="http://www.w3.org/2000/svg" xmlns:xlink="http://www.w3.org/1999/xlink" x="0px" y="0px"
	 viewBox="0 0 88.6 205.3" style="enable-background:new 0 0 88.6 205.3;" xml:space="preserve">
<style type="text/css">
	.st0{fill:#47E17A;}
	.st1{fill:#FFFFFF;}
</style>
<path class="st0" d="M15.2,70.6c0.7-20.7,0.5-41.3-0.1-61.9C15,6.5,14.1,4,18,3.8c4.1-0.2,3.1,2.7,3.2,4.7
	c1.3,30.3,0.3,60.6,0.3,90.9c0,19.5-0.2,39,4.5,58.1c6.2,25.1,19.8,36.2,45.5,37.2c4.1,0.2,8.3,0,12.5-0.3c2.4-0.2,3.1,0.7,3.5,2.9
	c0.4,2.6-0.8,3.1-3,3.3c-10.9,1.1-21.6,0.6-32.1-2.8c-18.6-6-27.8-20.2-32.3-38.1c-4.9-19.6-4.8-39.6-5-59.6
	C15.1,90.3,15.2,80.4,15.2,70.6z"/>
<polygon class="st1" points="2.4,10.6 11,6.9 11,13.4 "/>
<polygon class="st1" points="2.4,22.6 11,18.9 11,25.4 "/>
<polygon class="st1" points="2.4,35.6 11,31.9 11,38.4 "/>
</svg>
