<?xml version="1.0" encoding="utf-8"?>
<!-- Generator: Adobe Illustrator 19.1.0, SVG Export Plug-In . SVG Version: 6.00 Build 0)  -->
<svg version="1.1" id="Calque_1" xmlns="http://www.w3.org/2000/svg" xmlns:xlink="http://www.w3.org/1999/xlink" x="0px" y="0px"
	 viewBox="0 0 123.7 10.7" style="enable-background:new 0 0 123.7 10.7;" xml:space="preserve">
<style type="text/css">
	.st0{fill:#3DE073;}
	.st1{fill:#1D1363;}
	.st2{fill:#FFFFFF;}
	.st3{fill:none;stroke:#3DE073;stroke-miterlimit:10;}
	.st4{fill:none;stroke:#FFFFFF;stroke-miterlimit:10;}
	.st5{fill:none;stroke:#3DE073;stroke-width:1.5;stroke-miterlimit:10;}
	.st6{fill:none;stroke:#1D1363;stroke-width:1.5;stroke-miterlimit:10;}
</style>
<path class="st1" d="M6.1,0.3c0.5,0.2,0.9,0.5,1.4,0.8l-1,1.2C5.9,1.8,5.3,1.5,4.6,1.5c-0.8,0-1.4,0.3-1.8,0.9
	C2.3,3.1,2.1,4,2.1,5.3c0,1.3,0.2,2.3,0.7,2.9c0.5,0.6,1.1,0.9,1.9,0.9c0.4,0,0.7-0.1,1.1-0.2c0.3-0.1,0.6-0.4,1-0.6l0.9,1.2
	c-0.3,0.4-0.8,0.7-1.3,0.9c-0.5,0.2-1.1,0.4-1.8,0.4c-0.9,0-1.7-0.2-2.4-0.6c-0.7-0.4-1.2-1-1.6-1.8C0.2,7.4,0,6.5,0,5.3
	c0-1.1,0.2-2.1,0.6-2.9C1,1.6,1.5,1,2.2,0.6C2.9,0.2,3.6,0,4.5,0C5.1,0,5.7,0.1,6.1,0.3z"/>
<path class="st1" d="M11.4,6.4v4.1h-2V0.2h3.1c2.7,0,4.1,1,4.1,3c0,0.7-0.2,1.3-0.5,1.7c-0.3,0.4-0.9,0.8-1.6,1.1l2.7,4.5h-2.3
	l-2.3-4.1H11.4z M12.6,5c0.6,0,1.1-0.1,1.4-0.4c0.3-0.3,0.5-0.7,0.5-1.3c0-0.6-0.2-1-0.5-1.2c-0.3-0.3-0.9-0.4-1.6-0.4h-1.1V5H12.6z
	"/>
<path class="st1" d="M41.8,1.8v8.7h-2V1.8H37V0.2h7.6l-0.2,1.6H41.8z"/>
<path class="st1" d="M46.8,10.5V0.2h2v10.3H46.8z"/>
<path class="st1" d="M53.5,10.5L50.3,0.2h2.1l2.2,8.5l2.2-8.5h2l-3,10.3H53.5z"/>
<path class="st2" d="M76.7,0.3c0.5,0.2,0.9,0.5,1.4,0.8l-1,1.2c-0.6-0.5-1.2-0.7-1.9-0.7c-0.8,0-1.4,0.3-1.8,0.9
	c-0.5,0.6-0.7,1.6-0.7,2.9c0,1.3,0.2,2.3,0.7,2.9c0.5,0.6,1.1,0.9,1.9,0.9c0.4,0,0.7-0.1,1.1-0.2c0.3-0.1,0.6-0.4,1-0.6l0.9,1.2
	c-0.3,0.4-0.8,0.7-1.3,0.9c-0.5,0.2-1.1,0.4-1.8,0.4c-0.9,0-1.7-0.2-2.4-0.6c-0.7-0.4-1.2-1-1.6-1.8c-0.4-0.8-0.6-1.8-0.6-2.9
	c0-1.1,0.2-2.1,0.6-2.9s0.9-1.4,1.6-1.8C73.4,0.2,74.2,0,75,0C75.7,0,76.2,0.1,76.7,0.3z"/>
<path class="st2" d="M95.1,0.3c0.5,0.2,0.9,0.5,1.4,0.8l-1,1.2c-0.6-0.5-1.2-0.7-1.9-0.7c-0.8,0-1.4,0.3-1.8,0.9
	c-0.5,0.6-0.7,1.6-0.7,2.9c0,1.3,0.2,2.3,0.7,2.9c0.5,0.6,1.1,0.9,1.9,0.9c0.4,0,0.7-0.1,1.1-0.2c0.3-0.1,0.6-0.4,1-0.6l0.9,1.2
	c-0.3,0.4-0.8,0.7-1.3,0.9c-0.5,0.2-1.1,0.4-1.8,0.4c-0.9,0-1.7-0.2-2.4-0.6c-0.7-0.4-1.2-1-1.6-1.8C89.2,7.4,89,6.5,89,5.3
	c0-1.1,0.2-2.1,0.6-2.9s0.9-1.4,1.6-1.8C91.9,0.2,92.6,0,93.5,0C94.1,0,94.7,0.1,95.1,0.3z"/>
<path class="st2" d="M102.3,1.8v8.7h-2V1.8h-2.8V0.2h7.6l-0.2,1.6H102.3z"/>
<path class="st2" d="M121.9,0.3c0.5,0.2,1,0.5,1.5,1l-1,1.1c-0.4-0.3-0.7-0.5-1.1-0.7c-0.4-0.1-0.8-0.2-1.2-0.2
	c-0.5,0-0.9,0.1-1.2,0.3c-0.3,0.2-0.4,0.5-0.4,0.9c0,0.3,0.1,0.5,0.2,0.6c0.1,0.2,0.3,0.3,0.6,0.5c0.3,0.1,0.7,0.3,1.3,0.5
	c1,0.3,1.8,0.7,2.3,1.2c0.5,0.5,0.8,1.2,0.8,2.1c0,0.6-0.2,1.2-0.5,1.6c-0.3,0.5-0.8,0.8-1.3,1.1c-0.6,0.3-1.3,0.4-2.1,0.4
	c-0.8,0-1.5-0.1-2.1-0.4c-0.6-0.3-1.2-0.6-1.6-1l1-1.2c0.8,0.7,1.6,1.1,2.6,1.1c0.6,0,1-0.1,1.4-0.4c0.3-0.3,0.5-0.6,0.5-1.1
	c0-0.3-0.1-0.5-0.2-0.7c-0.1-0.2-0.3-0.4-0.6-0.5c-0.3-0.2-0.7-0.3-1.2-0.5c-1.1-0.3-1.9-0.7-2.4-1.2c-0.5-0.5-0.7-1.1-0.7-1.9
	c0-0.6,0.1-1.1,0.4-1.5c0.3-0.4,0.7-0.8,1.2-1c0.5-0.2,1.1-0.4,1.8-0.4C120.7,0,121.4,0.1,121.9,0.3z"/>
<g>
	<path class="st2" d="M112.7,10.3l-0.1-1.4c-0.4,0.6-0.8,1-1.3,1.3c-0.5,0.3-1.1,0.4-1.8,0.4c-0.9,0-1.6-0.3-2.1-0.8
		c-0.5-0.6-0.7-1.3-0.7-2.3V0.2h2.4v6.9c0,0.6,0.1,1,0.3,1.2c0.2,0.2,0.5,0.4,0.9,0.4c0.8,0,1.5-0.5,2-1.4V0.2h2.4v10.1H112.7z"/>
</g>
<path class="st1" d="M26.5,6.1h-6.1c0.1,0.9,0.3,1.6,0.7,2c0.4,0.4,1,0.6,1.6,0.6c0.4,0,0.8-0.1,1.2-0.2c0.4-0.1,0.8-0.4,1.2-0.7
	l1,1.3c-1.1,0.9-2.3,1.3-3.6,1.3c-1.5,0-2.6-0.5-3.4-1.4c-0.8-0.9-1.2-2.1-1.2-3.7c0-1,0.2-1.9,0.5-2.7c0.3-0.8,0.8-1.4,1.5-1.9
	c0.7-0.4,1.4-0.7,2.3-0.7c1.4,0,2.4,0.4,3.2,1.3c0.7,0.9,1.1,2.1,1.1,3.6C26.5,5.3,26.5,5.6,26.5,6.1z M24.2,4.5
	c0-1.7-0.6-2.6-1.9-2.6c-0.6,0-1,0.2-1.4,0.6c-0.3,0.4-0.5,1.1-0.6,2h3.8V4.5z"/>
<path class="st1" d="M68.1,6.1H62c0.1,0.9,0.3,1.6,0.7,2c0.4,0.4,1,0.6,1.6,0.6c0.4,0,0.8-0.1,1.2-0.2c0.4-0.1,0.8-0.4,1.2-0.7
	l1,1.3c-1.1,0.9-2.3,1.3-3.6,1.3c-1.5,0-2.6-0.5-3.4-1.4C60,8.2,59.6,7,59.6,5.4c0-1,0.2-1.9,0.5-2.7c0.3-0.8,0.8-1.4,1.5-1.9
	c0.7-0.4,1.4-0.7,2.3-0.7c1.4,0,2.4,0.4,3.2,1.3c0.7,0.9,1.1,2.1,1.1,3.6C68.2,5.3,68.2,5.6,68.1,6.1z M65.9,4.5
	c0-1.7-0.6-2.6-1.9-2.6c-0.6,0-1,0.2-1.4,0.6c-0.3,0.4-0.5,1.1-0.6,2h3.8V4.5z"/>
<path class="st1" d="M35.9,8.5c0.1,0.2,0.3,0.3,0.6,0.4L36,10.5c-0.6,0-1-0.2-1.4-0.4c-0.3-0.2-0.6-0.6-0.8-1
	c-0.3,0.5-0.7,0.9-1.2,1.1c-0.5,0.2-1.1,0.4-1.7,0.4c-1,0-1.7-0.3-2.3-0.8c-0.6-0.6-0.8-1.3-0.8-2.2c0-1.1,0.4-1.9,1.2-2.4
	c0.8-0.6,1.9-0.8,3.3-0.8h1.2V3.7c0-0.6-0.1-1.1-0.4-1.3C32.7,2.1,32.3,2,31.6,2c-0.7,0-1.6,0.2-2.6,0.5l-0.6-1.6
	c1.2-0.5,2.4-0.7,3.5-0.7c2.5,0,3.7,1.1,3.7,3.4v4.1C35.8,8,35.8,8.3,35.9,8.5z M33.4,7.6v-2h-1c-1.5,0-2.3,0.6-2.3,1.7
	c0,0.5,0.1,0.8,0.3,1.1c0.2,0.3,0.6,0.4,1,0.4C32.4,8.8,33,8.4,33.4,7.6z"/>
<path class="st2" d="M87.2,8.5c0.1,0.2,0.3,0.3,0.6,0.4l-0.5,1.6c-0.6,0-1-0.2-1.4-0.4c-0.3-0.2-0.6-0.6-0.8-1
	c-0.3,0.5-0.7,0.9-1.2,1.1c-0.5,0.2-1.1,0.4-1.7,0.4c-1,0-1.7-0.3-2.3-0.8c-0.6-0.6-0.8-1.3-0.8-2.2c0-1.1,0.4-1.9,1.2-2.4
	c0.8-0.6,1.9-0.8,3.3-0.8h1.2V3.7c0-0.6-0.1-1.1-0.4-1.3C84,2.1,83.6,2,82.9,2c-0.7,0-1.6,0.2-2.6,0.5l-0.6-1.6
	c1.2-0.5,2.4-0.7,3.5-0.7c2.5,0,3.7,1.1,3.7,3.4v4.1C87.1,8,87.1,8.3,87.2,8.5z M84.7,7.6v-2h-1c-1.5,0-2.3,0.6-2.3,1.7
	c0,0.5,0.1,0.8,0.3,1.1c0.2,0.3,0.6,0.4,1,0.4C83.7,8.8,84.3,8.4,84.7,7.6z"/>
</svg>
